<mxfile host="Electron" agent="Mozilla/5.0 (Macintosh; Intel Mac OS X 10_15_7) AppleWebKit/537.36 (KHTML, like Gecko) draw.io/26.0.9 Chrome/128.0.6613.186 Electron/32.2.5 Safari/537.36" version="26.0.9" pages="4">
  <diagram name="Architecture" id="kq0j_Lefxn60xgU4jNix">
    <mxGraphModel dx="1026" dy="747" grid="1" gridSize="10" guides="1" tooltips="1" connect="1" arrows="1" fold="1" page="1" pageScale="1" pageWidth="827" pageHeight="1169" math="0" shadow="0">
      <root>
        <mxCell id="KNyQbIaJBrP30gAhAcAL-0" />
        <mxCell id="KNyQbIaJBrP30gAhAcAL-1" parent="KNyQbIaJBrP30gAhAcAL-0" />
        <mxCell id="wxqP8cZICfD2D72dRVtY-3" style="rounded=0;sketch=1;hachureGap=4;jiggle=2;curveFitting=1;orthogonalLoop=1;jettySize=auto;html=1;entryX=0;entryY=0.5;entryDx=0;entryDy=0;fontFamily=Architects Daughter;fontSource=https%3A%2F%2Ffonts.googleapis.com%2Fcss%3Ffamily%3DArchitects%2BDaughter;strokeWidth=4;exitX=1;exitY=0.5;exitDx=0;exitDy=0;" edge="1" parent="KNyQbIaJBrP30gAhAcAL-1" source="nq-h1lEaWhY9Cy4sx3JM-2" target="nq-h1lEaWhY9Cy4sx3JM-4">
          <mxGeometry relative="1" as="geometry">
            <mxPoint x="310" y="420" as="sourcePoint" />
          </mxGeometry>
        </mxCell>
        <mxCell id="nq-h1lEaWhY9Cy4sx3JM-2" value="&lt;font style=&quot;font-size: 18px;&quot;&gt;OffsetManager&lt;/font&gt;" style="rounded=1;whiteSpace=wrap;html=1;strokeColor=#b85450;fillColor=#f8cecc;arcSize=24;absoluteArcSize=1;imageWidth=64;imageHeight=64;strokeWidth=1.5;verticalAlign=top;align=left;fontSize=16;fontStyle=1;spacingTop=10;spacingLeft=20;sketch=1;hachureGap=4;jiggle=2;curveFitting=1;fontFamily=Architects Daughter;fontSource=https%3A%2F%2Ffonts.googleapis.com%2Fcss%3Ffamily%3DArchitects%2BDaughter;" vertex="1" parent="KNyQbIaJBrP30gAhAcAL-1">
          <mxGeometry x="30" y="310" width="220" height="240" as="geometry" />
        </mxCell>
        <mxCell id="nq-h1lEaWhY9Cy4sx3JM-3" value="" style="rounded=1;whiteSpace=wrap;html=1;strokeColor=#07838F;fillColor=#ffffff;arcSize=24;absoluteArcSize=1;imageWidth=64;imageHeight=64;strokeWidth=1.5;part=1;sketch=1;hachureGap=4;jiggle=2;curveFitting=1;fontFamily=Architects Daughter;fontSource=https%3A%2F%2Ffonts.googleapis.com%2Fcss%3Ffamily%3DArchitects%2BDaughter;" vertex="1" parent="nq-h1lEaWhY9Cy4sx3JM-2">
          <mxGeometry x="12.571428571428573" y="45.51724137931035" width="194.85714285714286" height="177.93103448275863" as="geometry" />
        </mxCell>
        <mxCell id="pVoPXvnEKHCVItvDHUDO-35" value="OffsetMap" style="shape=table;startSize=30;container=1;collapsible=0;childLayout=tableLayout;fixedRows=1;rowLines=0;fontStyle=0;strokeColor=default;fontSize=16;sketch=1;hachureGap=4;jiggle=2;curveFitting=1;fontFamily=Architects Daughter;fontSource=https%3A%2F%2Ffonts.googleapis.com%2Fcss%3Ffamily%3DArchitects%2BDaughter;fontColor=default;labelBackgroundColor=default;" vertex="1" parent="nq-h1lEaWhY9Cy4sx3JM-2">
          <mxGeometry x="40" y="70" width="140" height="120" as="geometry" />
        </mxCell>
        <mxCell id="pVoPXvnEKHCVItvDHUDO-36" value="" style="shape=tableRow;horizontal=0;startSize=0;swimlaneHead=0;swimlaneBody=0;top=0;left=0;bottom=0;right=0;collapsible=0;dropTarget=0;fillColor=none;points=[[0,0.5],[1,0.5]];portConstraint=eastwest;strokeColor=inherit;fontSize=16;sketch=1;hachureGap=4;jiggle=2;curveFitting=1;fontFamily=Architects Daughter;fontSource=https%3A%2F%2Ffonts.googleapis.com%2Fcss%3Ffamily%3DArchitects%2BDaughter;fontColor=default;labelBackgroundColor=default;" vertex="1" parent="pVoPXvnEKHCVItvDHUDO-35">
          <mxGeometry y="30" width="140" height="30" as="geometry" />
        </mxCell>
        <mxCell id="pVoPXvnEKHCVItvDHUDO-37" value="file-1" style="shape=partialRectangle;html=1;whiteSpace=wrap;connectable=0;fillColor=none;top=0;left=0;bottom=0;right=0;overflow=hidden;pointerEvents=1;strokeColor=inherit;fontSize=16;sketch=1;hachureGap=4;jiggle=2;curveFitting=1;fontFamily=Architects Daughter;fontSource=https%3A%2F%2Ffonts.googleapis.com%2Fcss%3Ffamily%3DArchitects%2BDaughter;fontColor=default;labelBackgroundColor=default;" vertex="1" parent="pVoPXvnEKHCVItvDHUDO-36">
          <mxGeometry width="93" height="30" as="geometry">
            <mxRectangle width="93" height="30" as="alternateBounds" />
          </mxGeometry>
        </mxCell>
        <mxCell id="pVoPXvnEKHCVItvDHUDO-38" value="100" style="shape=partialRectangle;html=1;whiteSpace=wrap;connectable=0;fillColor=none;top=0;left=0;bottom=0;right=0;align=left;spacingLeft=6;overflow=hidden;strokeColor=inherit;fontSize=16;sketch=1;hachureGap=4;jiggle=2;curveFitting=1;fontFamily=Architects Daughter;fontSource=https%3A%2F%2Ffonts.googleapis.com%2Fcss%3Ffamily%3DArchitects%2BDaughter;fontColor=default;labelBackgroundColor=default;" vertex="1" parent="pVoPXvnEKHCVItvDHUDO-36">
          <mxGeometry x="93" width="47" height="30" as="geometry">
            <mxRectangle width="47" height="30" as="alternateBounds" />
          </mxGeometry>
        </mxCell>
        <mxCell id="pVoPXvnEKHCVItvDHUDO-39" value="" style="shape=tableRow;horizontal=0;startSize=0;swimlaneHead=0;swimlaneBody=0;top=0;left=0;bottom=0;right=0;collapsible=0;dropTarget=0;fillColor=none;points=[[0,0.5],[1,0.5]];portConstraint=eastwest;strokeColor=inherit;fontSize=16;sketch=1;hachureGap=4;jiggle=2;curveFitting=1;fontFamily=Architects Daughter;fontSource=https%3A%2F%2Ffonts.googleapis.com%2Fcss%3Ffamily%3DArchitects%2BDaughter;fontColor=default;labelBackgroundColor=default;" vertex="1" parent="pVoPXvnEKHCVItvDHUDO-35">
          <mxGeometry y="60" width="140" height="30" as="geometry" />
        </mxCell>
        <mxCell id="pVoPXvnEKHCVItvDHUDO-40" value="file-2" style="shape=partialRectangle;html=1;whiteSpace=wrap;connectable=0;fillColor=none;top=0;left=0;bottom=0;right=0;overflow=hidden;strokeColor=inherit;fontSize=16;sketch=1;hachureGap=4;jiggle=2;curveFitting=1;fontFamily=Architects Daughter;fontSource=https%3A%2F%2Ffonts.googleapis.com%2Fcss%3Ffamily%3DArchitects%2BDaughter;fontColor=default;labelBackgroundColor=default;" vertex="1" parent="pVoPXvnEKHCVItvDHUDO-39">
          <mxGeometry width="93" height="30" as="geometry">
            <mxRectangle width="93" height="30" as="alternateBounds" />
          </mxGeometry>
        </mxCell>
        <mxCell id="pVoPXvnEKHCVItvDHUDO-41" value="-1" style="shape=partialRectangle;html=1;whiteSpace=wrap;connectable=0;fillColor=none;top=0;left=0;bottom=0;right=0;align=left;spacingLeft=6;overflow=hidden;strokeColor=inherit;fontSize=16;sketch=1;hachureGap=4;jiggle=2;curveFitting=1;fontFamily=Architects Daughter;fontSource=https%3A%2F%2Ffonts.googleapis.com%2Fcss%3Ffamily%3DArchitects%2BDaughter;fontColor=default;labelBackgroundColor=default;" vertex="1" parent="pVoPXvnEKHCVItvDHUDO-39">
          <mxGeometry x="93" width="47" height="30" as="geometry">
            <mxRectangle width="47" height="30" as="alternateBounds" />
          </mxGeometry>
        </mxCell>
        <mxCell id="pVoPXvnEKHCVItvDHUDO-42" value="" style="shape=tableRow;horizontal=0;startSize=0;swimlaneHead=0;swimlaneBody=0;top=0;left=0;bottom=0;right=0;collapsible=0;dropTarget=0;fillColor=none;points=[[0,0.5],[1,0.5]];portConstraint=eastwest;strokeColor=inherit;fontSize=16;sketch=1;hachureGap=4;jiggle=2;curveFitting=1;fontFamily=Architects Daughter;fontSource=https%3A%2F%2Ffonts.googleapis.com%2Fcss%3Ffamily%3DArchitects%2BDaughter;fontColor=default;labelBackgroundColor=default;" vertex="1" parent="pVoPXvnEKHCVItvDHUDO-35">
          <mxGeometry y="90" width="140" height="30" as="geometry" />
        </mxCell>
        <mxCell id="pVoPXvnEKHCVItvDHUDO-43" value="file-3" style="shape=partialRectangle;html=1;whiteSpace=wrap;connectable=0;fillColor=none;top=0;left=0;bottom=0;right=0;overflow=hidden;strokeColor=inherit;fontSize=16;sketch=1;hachureGap=4;jiggle=2;curveFitting=1;fontFamily=Architects Daughter;fontSource=https%3A%2F%2Ffonts.googleapis.com%2Fcss%3Ffamily%3DArchitects%2BDaughter;fontColor=default;labelBackgroundColor=default;" vertex="1" parent="pVoPXvnEKHCVItvDHUDO-42">
          <mxGeometry width="93" height="30" as="geometry">
            <mxRectangle width="93" height="30" as="alternateBounds" />
          </mxGeometry>
        </mxCell>
        <mxCell id="pVoPXvnEKHCVItvDHUDO-44" value="0" style="shape=partialRectangle;html=1;whiteSpace=wrap;connectable=0;fillColor=none;top=0;left=0;bottom=0;right=0;align=left;spacingLeft=6;overflow=hidden;strokeColor=inherit;fontSize=16;sketch=1;hachureGap=4;jiggle=2;curveFitting=1;fontFamily=Architects Daughter;fontSource=https%3A%2F%2Ffonts.googleapis.com%2Fcss%3Ffamily%3DArchitects%2BDaughter;fontColor=default;labelBackgroundColor=default;" vertex="1" parent="pVoPXvnEKHCVItvDHUDO-42">
          <mxGeometry x="93" width="47" height="30" as="geometry">
            <mxRectangle width="47" height="30" as="alternateBounds" />
          </mxGeometry>
        </mxCell>
        <mxCell id="nq-h1lEaWhY9Cy4sx3JM-4" value="&lt;span style=&quot;font-size: 18px;&quot;&gt;Reprocessor&lt;/span&gt;" style="rounded=1;whiteSpace=wrap;html=1;strokeColor=#6c8ebf;fillColor=#dae8fc;arcSize=24;absoluteArcSize=1;imageWidth=64;imageHeight=64;strokeWidth=1.5;verticalAlign=top;align=left;fontSize=16;fontStyle=1;spacingTop=10;spacingLeft=20;sketch=1;hachureGap=4;jiggle=2;curveFitting=1;fontFamily=Architects Daughter;fontSource=https%3A%2F%2Ffonts.googleapis.com%2Fcss%3Ffamily%3DArchitects%2BDaughter;" vertex="1" parent="KNyQbIaJBrP30gAhAcAL-1">
          <mxGeometry x="424" y="310" width="220" height="240" as="geometry" />
        </mxCell>
        <mxCell id="nq-h1lEaWhY9Cy4sx3JM-5" value="" style="rounded=1;whiteSpace=wrap;html=1;strokeColor=#07838F;fillColor=#ffffff;arcSize=24;absoluteArcSize=1;imageWidth=64;imageHeight=64;strokeWidth=1.5;part=1;sketch=1;hachureGap=4;jiggle=2;curveFitting=1;fontFamily=Architects Daughter;fontSource=https%3A%2F%2Ffonts.googleapis.com%2Fcss%3Ffamily%3DArchitects%2BDaughter;" vertex="1" parent="nq-h1lEaWhY9Cy4sx3JM-4">
          <mxGeometry x="12.571428571428573" y="45.51724137931035" width="194.85714285714286" height="177.93103448275863" as="geometry" />
        </mxCell>
        <mxCell id="pVoPXvnEKHCVItvDHUDO-13" value="" style="ellipse;whiteSpace=wrap;html=1;sketch=1;hachureGap=4;jiggle=2;curveFitting=1;fontFamily=Architects Daughter;fontSource=https%3A%2F%2Ffonts.googleapis.com%2Fcss%3Ffamily%3DArchitects%2BDaughter;fontSize=11;fontColor=default;labelBackgroundColor=default;" vertex="1" parent="nq-h1lEaWhY9Cy4sx3JM-4">
          <mxGeometry x="86" y="60" width="44" height="40" as="geometry" />
        </mxCell>
        <mxCell id="pVoPXvnEKHCVItvDHUDO-14" value="" style="ellipse;whiteSpace=wrap;html=1;sketch=1;hachureGap=4;jiggle=2;curveFitting=1;fontFamily=Architects Daughter;fontSource=https%3A%2F%2Ffonts.googleapis.com%2Fcss%3Ffamily%3DArchitects%2BDaughter;fontSize=11;fontColor=default;labelBackgroundColor=default;" vertex="1" parent="nq-h1lEaWhY9Cy4sx3JM-4">
          <mxGeometry x="86" y="110" width="44" height="40" as="geometry" />
        </mxCell>
        <mxCell id="pVoPXvnEKHCVItvDHUDO-15" value="" style="ellipse;whiteSpace=wrap;html=1;sketch=1;hachureGap=4;jiggle=2;curveFitting=1;fontFamily=Architects Daughter;fontSource=https%3A%2F%2Ffonts.googleapis.com%2Fcss%3Ffamily%3DArchitects%2BDaughter;fontSize=11;fontColor=default;labelBackgroundColor=default;" vertex="1" parent="nq-h1lEaWhY9Cy4sx3JM-4">
          <mxGeometry x="56" y="160" width="44" height="40" as="geometry" />
        </mxCell>
        <mxCell id="pVoPXvnEKHCVItvDHUDO-16" value="" style="ellipse;whiteSpace=wrap;html=1;sketch=1;hachureGap=4;jiggle=2;curveFitting=1;fontFamily=Architects Daughter;fontSource=https%3A%2F%2Ffonts.googleapis.com%2Fcss%3Ffamily%3DArchitects%2BDaughter;fontSize=11;fontColor=default;labelBackgroundColor=default;" vertex="1" parent="nq-h1lEaWhY9Cy4sx3JM-4">
          <mxGeometry x="116" y="160" width="44" height="40" as="geometry" />
        </mxCell>
        <mxCell id="pVoPXvnEKHCVItvDHUDO-17" value="" style="endArrow=none;html=1;rounded=0;sketch=1;hachureGap=4;jiggle=2;curveFitting=1;strokeColor=default;strokeWidth=2;align=center;verticalAlign=middle;fontFamily=Architects Daughter;fontSource=https%3A%2F%2Ffonts.googleapis.com%2Fcss%3Ffamily%3DArchitects%2BDaughter;fontSize=11;fontColor=default;labelBackgroundColor=default;entryX=0.5;entryY=1;entryDx=0;entryDy=0;" edge="1" parent="nq-h1lEaWhY9Cy4sx3JM-4" source="pVoPXvnEKHCVItvDHUDO-14" target="pVoPXvnEKHCVItvDHUDO-13">
          <mxGeometry width="50" height="50" relative="1" as="geometry">
            <mxPoint x="-94" y="140" as="sourcePoint" />
            <mxPoint x="-44" y="90" as="targetPoint" />
          </mxGeometry>
        </mxCell>
        <mxCell id="pVoPXvnEKHCVItvDHUDO-18" value="" style="endArrow=none;html=1;rounded=0;sketch=1;hachureGap=4;jiggle=2;curveFitting=1;strokeColor=default;strokeWidth=2;align=center;verticalAlign=middle;fontFamily=Architects Daughter;fontSource=https%3A%2F%2Ffonts.googleapis.com%2Fcss%3Ffamily%3DArchitects%2BDaughter;fontSize=11;fontColor=default;labelBackgroundColor=default;entryX=0;entryY=1;entryDx=0;entryDy=0;exitX=0.5;exitY=0;exitDx=0;exitDy=0;" edge="1" parent="nq-h1lEaWhY9Cy4sx3JM-4" source="pVoPXvnEKHCVItvDHUDO-15" target="pVoPXvnEKHCVItvDHUDO-14">
          <mxGeometry width="50" height="50" relative="1" as="geometry">
            <mxPoint x="118" y="120" as="sourcePoint" />
            <mxPoint x="118" y="110" as="targetPoint" />
          </mxGeometry>
        </mxCell>
        <mxCell id="pVoPXvnEKHCVItvDHUDO-19" value="" style="endArrow=none;html=1;rounded=0;sketch=1;hachureGap=4;jiggle=2;curveFitting=1;strokeColor=default;strokeWidth=2;align=center;verticalAlign=middle;fontFamily=Architects Daughter;fontSource=https%3A%2F%2Ffonts.googleapis.com%2Fcss%3Ffamily%3DArchitects%2BDaughter;fontSize=11;fontColor=default;labelBackgroundColor=default;entryX=1;entryY=1;entryDx=0;entryDy=0;exitX=0.5;exitY=0;exitDx=0;exitDy=0;" edge="1" parent="nq-h1lEaWhY9Cy4sx3JM-4" source="pVoPXvnEKHCVItvDHUDO-16" target="pVoPXvnEKHCVItvDHUDO-14">
          <mxGeometry width="50" height="50" relative="1" as="geometry">
            <mxPoint x="104" y="176" as="sourcePoint" />
            <mxPoint x="118" y="160" as="targetPoint" />
          </mxGeometry>
        </mxCell>
        <mxCell id="pVoPXvnEKHCVItvDHUDO-20" value="&lt;font&gt;Pipeline&lt;/font&gt;" style="text;html=1;align=center;verticalAlign=middle;resizable=0;points=[];autosize=1;strokeColor=none;fillColor=none;fontFamily=Architects Daughter;fontSource=https%3A%2F%2Ffonts.googleapis.com%2Fcss%3Ffamily%3DArchitects%2BDaughter;fontSize=14;fontColor=default;labelBackgroundColor=default;" vertex="1" parent="nq-h1lEaWhY9Cy4sx3JM-4">
          <mxGeometry x="16" y="60" width="70" height="30" as="geometry" />
        </mxCell>
        <mxCell id="z72OD_9aJP0VABjKGj_u-0" value="&lt;span style=&quot;font-weight: normal;&quot;&gt;&lt;font style=&quot;font-size: 20px;&quot;&gt;Kafka&lt;/font&gt;&lt;/span&gt;" style="rounded=1;whiteSpace=wrap;html=1;strokeColor=#d6b656;fillColor=#fff2cc;arcSize=24;absoluteArcSize=1;imageWidth=64;imageHeight=64;strokeWidth=1.5;verticalAlign=top;align=left;fontSize=16;fontStyle=1;spacingTop=10;spacingLeft=20;sketch=1;hachureGap=4;jiggle=2;curveFitting=1;fontFamily=Architects Daughter;fontSource=https%3A%2F%2Ffonts.googleapis.com%2Fcss%3Ffamily%3DArchitects%2BDaughter;" vertex="1" parent="KNyQbIaJBrP30gAhAcAL-1">
          <mxGeometry x="30" y="80" width="600" height="200" as="geometry" />
        </mxCell>
        <mxCell id="wxqP8cZICfD2D72dRVtY-2" style="edgeStyle=orthogonalEdgeStyle;rounded=0;sketch=1;hachureGap=4;jiggle=2;curveFitting=1;orthogonalLoop=1;jettySize=auto;html=1;exitX=0.5;exitY=1;exitDx=0;exitDy=0;exitPerimeter=0;fontFamily=Architects Daughter;fontSource=https%3A%2F%2Ffonts.googleapis.com%2Fcss%3Ffamily%3DArchitects%2BDaughter;strokeWidth=4;" edge="1" parent="KNyQbIaJBrP30gAhAcAL-1" source="wxqP8cZICfD2D72dRVtY-0" target="nq-h1lEaWhY9Cy4sx3JM-2">
          <mxGeometry relative="1" as="geometry" />
        </mxCell>
        <mxCell id="wxqP8cZICfD2D72dRVtY-0" value="&lt;font style=&quot;font-size: 16px;&quot;&gt;Offset Topic&lt;/font&gt;" style="strokeWidth=2;html=1;shape=mxgraph.flowchart.database;whiteSpace=wrap;sketch=1;hachureGap=4;jiggle=2;curveFitting=1;fontFamily=Architects Daughter;fontSource=https%3A%2F%2Ffonts.googleapis.com%2Fcss%3Ffamily%3DArchitects%2BDaughter;rotation=90;horizontal=0;spacingRight=40;" vertex="1" parent="KNyQbIaJBrP30gAhAcAL-1">
          <mxGeometry x="290" y="90" width="60" height="280" as="geometry" />
        </mxCell>
        <mxCell id="wxqP8cZICfD2D72dRVtY-1" value="&lt;font style=&quot;font-size: 16px;&quot;&gt;Upstream Topic&lt;/font&gt;" style="strokeWidth=2;html=1;shape=mxgraph.flowchart.database;whiteSpace=wrap;sketch=1;hachureGap=4;jiggle=2;curveFitting=1;fontFamily=Architects Daughter;fontSource=https%3A%2F%2Ffonts.googleapis.com%2Fcss%3Ffamily%3DArchitects%2BDaughter;rotation=90;horizontal=0;spacingRight=40;" vertex="1" parent="KNyQbIaJBrP30gAhAcAL-1">
          <mxGeometry x="290" width="60" height="280" as="geometry" />
        </mxCell>
        <mxCell id="wxqP8cZICfD2D72dRVtY-6" style="edgeStyle=orthogonalEdgeStyle;shape=connector;rounded=0;sketch=1;hachureGap=4;jiggle=2;curveFitting=1;orthogonalLoop=1;jettySize=auto;html=1;entryX=0.5;entryY=0;entryDx=0;entryDy=0;entryPerimeter=0;strokeColor=default;strokeWidth=4;align=center;verticalAlign=middle;fontFamily=Architects Daughter;fontSource=https%3A%2F%2Ffonts.googleapis.com%2Fcss%3Ffamily%3DArchitects%2BDaughter;fontSize=11;fontColor=default;labelBackgroundColor=default;endArrow=classic;" edge="1" parent="KNyQbIaJBrP30gAhAcAL-1" source="nq-h1lEaWhY9Cy4sx3JM-4" target="wxqP8cZICfD2D72dRVtY-0">
          <mxGeometry relative="1" as="geometry" />
        </mxCell>
        <mxCell id="wxqP8cZICfD2D72dRVtY-7" style="edgeStyle=orthogonalEdgeStyle;shape=connector;rounded=0;sketch=1;hachureGap=4;jiggle=2;curveFitting=1;orthogonalLoop=1;jettySize=auto;html=1;exitX=0.5;exitY=0;exitDx=0;exitDy=0;entryX=0.5;entryY=0;entryDx=0;entryDy=0;entryPerimeter=0;strokeColor=default;strokeWidth=4;align=center;verticalAlign=middle;fontFamily=Architects Daughter;fontSource=https%3A%2F%2Ffonts.googleapis.com%2Fcss%3Ffamily%3DArchitects%2BDaughter;fontSize=11;fontColor=default;labelBackgroundColor=default;endArrow=classic;" edge="1" parent="KNyQbIaJBrP30gAhAcAL-1" source="nq-h1lEaWhY9Cy4sx3JM-4" target="wxqP8cZICfD2D72dRVtY-1">
          <mxGeometry relative="1" as="geometry" />
        </mxCell>
        <mxCell id="pVoPXvnEKHCVItvDHUDO-11" value="&lt;span style=&quot;font-weight: normal;&quot;&gt;&lt;font style=&quot;font-size: 20px;&quot;&gt;File Storage&lt;/font&gt;&lt;/span&gt;" style="rounded=1;whiteSpace=wrap;html=1;strokeColor=#666666;fillColor=#f5f5f5;arcSize=24;absoluteArcSize=1;imageWidth=64;imageHeight=64;strokeWidth=1.5;verticalAlign=top;align=left;fontSize=16;fontStyle=1;spacingTop=10;spacingLeft=20;sketch=1;hachureGap=4;jiggle=2;curveFitting=1;fontFamily=Architects Daughter;fontSource=https%3A%2F%2Ffonts.googleapis.com%2Fcss%3Ffamily%3DArchitects%2BDaughter;fontColor=#333333;" vertex="1" parent="KNyQbIaJBrP30gAhAcAL-1">
          <mxGeometry x="30" y="600" width="600" height="200" as="geometry" />
        </mxCell>
        <mxCell id="pVoPXvnEKHCVItvDHUDO-12" style="edgeStyle=orthogonalEdgeStyle;shape=connector;rounded=0;sketch=1;hachureGap=4;jiggle=2;curveFitting=1;orthogonalLoop=1;jettySize=auto;html=1;entryX=0.5;entryY=1;entryDx=0;entryDy=0;strokeColor=default;strokeWidth=4;align=center;verticalAlign=middle;fontFamily=Architects Daughter;fontSource=https%3A%2F%2Ffonts.googleapis.com%2Fcss%3Ffamily%3DArchitects%2BDaughter;fontSize=11;fontColor=default;labelBackgroundColor=default;endArrow=classic;" edge="1" parent="KNyQbIaJBrP30gAhAcAL-1" source="pVoPXvnEKHCVItvDHUDO-11" target="nq-h1lEaWhY9Cy4sx3JM-4">
          <mxGeometry relative="1" as="geometry" />
        </mxCell>
      </root>
    </mxGraphModel>
  </diagram>
  <diagram id="8mocVvNLEwjQlnSwzWSM" name="Pipeline">
    <mxGraphModel dx="1026" dy="747" grid="1" gridSize="10" guides="1" tooltips="1" connect="1" arrows="1" fold="1" page="1" pageScale="1" pageWidth="827" pageHeight="1169" math="0" shadow="0">
      <root>
        <mxCell id="0" />
        <mxCell id="1" parent="0" />
        <mxCell id="uWwTSG6ktfnMm2x9o51m-1" value="" style="rounded=0;whiteSpace=wrap;html=1;sketch=1;hachureGap=4;jiggle=2;curveFitting=1;fontFamily=Architects Daughter;fontSource=https%3A%2F%2Ffonts.googleapis.com%2Fcss%3Ffamily%3DArchitects%2BDaughter;fillColor=#dae8fc;strokeColor=#6c8ebf;" parent="1" vertex="1">
          <mxGeometry x="160" y="110" width="420" height="510" as="geometry" />
        </mxCell>
        <mxCell id="5OGZ8TOEZ4ISo7_Y0Ipv-5" style="rounded=0;sketch=1;hachureGap=4;jiggle=2;curveFitting=1;orthogonalLoop=1;jettySize=auto;html=1;exitX=0.5;exitY=1;exitDx=0;exitDy=0;fontFamily=Architects Daughter;fontSource=https%3A%2F%2Ffonts.googleapis.com%2Fcss%3Ffamily%3DArchitects%2BDaughter;entryX=0.5;entryY=0;entryDx=0;entryDy=0;" parent="1" source="5OGZ8TOEZ4ISo7_Y0Ipv-1" target="viBzZ-B53qdXmxcCXCbC-1" edge="1">
          <mxGeometry relative="1" as="geometry" />
        </mxCell>
        <mxCell id="5OGZ8TOEZ4ISo7_Y0Ipv-1" value="Reader" style="ellipse;whiteSpace=wrap;html=1;aspect=fixed;sketch=1;hachureGap=4;jiggle=2;curveFitting=1;fontFamily=Architects Daughter;fontSource=https%3A%2F%2Ffonts.googleapis.com%2Fcss%3Ffamily%3DArchitects%2BDaughter;" parent="1" vertex="1">
          <mxGeometry x="320" y="140" width="80" height="80" as="geometry" />
        </mxCell>
        <mxCell id="5OGZ8TOEZ4ISo7_Y0Ipv-6" style="edgeStyle=none;shape=connector;rounded=0;sketch=1;hachureGap=4;jiggle=2;curveFitting=1;orthogonalLoop=1;jettySize=auto;html=1;strokeColor=default;align=center;verticalAlign=middle;fontFamily=Architects Daughter;fontSource=https%3A%2F%2Ffonts.googleapis.com%2Fcss%3Ffamily%3DArchitects%2BDaughter;fontSize=11;fontColor=default;labelBackgroundColor=default;endArrow=classic;" parent="1" source="5OGZ8TOEZ4ISo7_Y0Ipv-2" target="5OGZ8TOEZ4ISo7_Y0Ipv-3" edge="1">
          <mxGeometry relative="1" as="geometry" />
        </mxCell>
        <mxCell id="5OGZ8TOEZ4ISo7_Y0Ipv-2" value="Processor" style="ellipse;whiteSpace=wrap;html=1;aspect=fixed;sketch=1;hachureGap=4;jiggle=2;curveFitting=1;fontFamily=Architects Daughter;fontSource=https%3A%2F%2Ffonts.googleapis.com%2Fcss%3Ffamily%3DArchitects%2BDaughter;" parent="1" vertex="1">
          <mxGeometry x="320" y="400" width="80" height="80" as="geometry" />
        </mxCell>
        <mxCell id="5OGZ8TOEZ4ISo7_Y0Ipv-7" style="edgeStyle=orthogonalEdgeStyle;shape=connector;rounded=0;sketch=1;hachureGap=4;jiggle=2;curveFitting=1;orthogonalLoop=1;jettySize=auto;html=1;exitX=0.5;exitY=1;exitDx=0;exitDy=0;entryX=0.592;entryY=-0.017;entryDx=0;entryDy=0;strokeColor=default;align=center;verticalAlign=middle;fontFamily=Architects Daughter;fontSource=https%3A%2F%2Ffonts.googleapis.com%2Fcss%3Ffamily%3DArchitects%2BDaughter;fontSize=11;fontColor=default;labelBackgroundColor=default;endArrow=classic;entryPerimeter=0;" parent="1" source="5OGZ8TOEZ4ISo7_Y0Ipv-3" target="7GpZUAwKVwqj07Rl_q-q-4" edge="1">
          <mxGeometry relative="1" as="geometry" />
        </mxCell>
        <mxCell id="5OGZ8TOEZ4ISo7_Y0Ipv-3" value="Processor" style="ellipse;whiteSpace=wrap;html=1;aspect=fixed;sketch=1;hachureGap=4;jiggle=2;curveFitting=1;fontFamily=Architects Daughter;fontSource=https%3A%2F%2Ffonts.googleapis.com%2Fcss%3Ffamily%3DArchitects%2BDaughter;" parent="1" vertex="1">
          <mxGeometry x="320" y="530" width="80" height="80" as="geometry" />
        </mxCell>
        <mxCell id="5OGZ8TOEZ4ISo7_Y0Ipv-4" value="Producer" style="ellipse;whiteSpace=wrap;html=1;aspect=fixed;sketch=1;hachureGap=4;jiggle=2;curveFitting=1;fontFamily=Architects Daughter;fontSource=https%3A%2F%2Ffonts.googleapis.com%2Fcss%3Ffamily%3DArchitects%2BDaughter;" parent="1" vertex="1">
          <mxGeometry x="375" y="670" width="80" height="80" as="geometry" />
        </mxCell>
        <mxCell id="5OGZ8TOEZ4ISo7_Y0Ipv-8" value="Chain Of Responsibility" style="text;html=1;align=center;verticalAlign=middle;resizable=0;points=[];autosize=1;strokeColor=none;fillColor=none;fontFamily=Architects Daughter;fontSource=https%3A%2F%2Ffonts.googleapis.com%2Fcss%3Ffamily%3DArchitects%2BDaughter;fontSize=11;fontColor=default;labelBackgroundColor=default;" parent="1" vertex="1">
          <mxGeometry x="180" y="490" width="140" height="30" as="geometry" />
        </mxCell>
        <mxCell id="5OGZ8TOEZ4ISo7_Y0Ipv-11" value="Log" style="shape=parallelogram;html=1;strokeWidth=2;perimeter=parallelogramPerimeter;whiteSpace=wrap;rounded=1;arcSize=12;size=0.23;sketch=1;hachureGap=4;jiggle=2;curveFitting=1;fontFamily=Architects Daughter;fontSource=https%3A%2F%2Ffonts.googleapis.com%2Fcss%3Ffamily%3DArchitects%2BDaughter;fontSize=11;fontColor=default;labelBackgroundColor=default;" parent="1" vertex="1">
          <mxGeometry x="325" y="490" width="70" height="20" as="geometry" />
        </mxCell>
        <mxCell id="5OGZ8TOEZ4ISo7_Y0Ipv-12" value="Log" style="shape=parallelogram;html=1;strokeWidth=2;perimeter=parallelogramPerimeter;whiteSpace=wrap;rounded=1;arcSize=12;size=0.23;sketch=1;hachureGap=4;jiggle=2;curveFitting=1;fontFamily=Architects Daughter;fontSource=https%3A%2F%2Ffonts.googleapis.com%2Fcss%3Ffamily%3DArchitects%2BDaughter;fontSize=11;fontColor=default;labelBackgroundColor=default;" parent="1" vertex="1">
          <mxGeometry x="260" y="640" width="70" height="20" as="geometry" />
        </mxCell>
        <mxCell id="5OGZ8TOEZ4ISo7_Y0Ipv-17" value="Kafka" style="strokeWidth=2;html=1;shape=mxgraph.flowchart.database;whiteSpace=wrap;sketch=1;hachureGap=4;jiggle=2;curveFitting=1;fontFamily=Architects Daughter;fontSource=https%3A%2F%2Ffonts.googleapis.com%2Fcss%3Ffamily%3DArchitects%2BDaughter;fontSize=11;fontColor=default;labelBackgroundColor=default;rotation=-90;textDirection=vertical-lr;" parent="1" vertex="1">
          <mxGeometry x="480" y="780" width="60" height="130" as="geometry" />
        </mxCell>
        <mxCell id="5OGZ8TOEZ4ISo7_Y0Ipv-18" style="edgeStyle=orthogonalEdgeStyle;shape=connector;rounded=0;sketch=1;hachureGap=4;jiggle=2;curveFitting=1;orthogonalLoop=1;jettySize=auto;html=1;exitX=0.454;exitY=1.013;exitDx=0;exitDy=0;entryX=0.5;entryY=0;entryDx=0;entryDy=0;strokeColor=default;align=center;verticalAlign=middle;fontFamily=Architects Daughter;fontSource=https%3A%2F%2Ffonts.googleapis.com%2Fcss%3Ffamily%3DArchitects%2BDaughter;fontSize=11;fontColor=default;labelBackgroundColor=default;endArrow=classic;exitPerimeter=0;entryPerimeter=0;curved=1;" parent="1" source="5OGZ8TOEZ4ISo7_Y0Ipv-4" target="5OGZ8TOEZ4ISo7_Y0Ipv-17" edge="1">
          <mxGeometry relative="1" as="geometry">
            <mxPoint x="425" y="620" as="sourcePoint" />
            <mxPoint x="425" y="680" as="targetPoint" />
          </mxGeometry>
        </mxCell>
        <mxCell id="7GpZUAwKVwqj07Rl_q-q-2" value="" style="group" parent="1" vertex="1" connectable="0">
          <mxGeometry x="363" y="770" width="90" height="40" as="geometry" />
        </mxCell>
        <mxCell id="5OGZ8TOEZ4ISo7_Y0Ipv-13" value="Log" style="shape=parallelogram;html=1;strokeWidth=2;perimeter=parallelogramPerimeter;whiteSpace=wrap;rounded=1;arcSize=12;size=0.23;sketch=1;hachureGap=4;jiggle=2;curveFitting=1;fontFamily=Architects Daughter;fontSource=https%3A%2F%2Ffonts.googleapis.com%2Fcss%3Ffamily%3DArchitects%2BDaughter;fontSize=11;fontColor=default;labelBackgroundColor=default;" parent="7GpZUAwKVwqj07Rl_q-q-2" vertex="1">
          <mxGeometry width="70" height="20" as="geometry" />
        </mxCell>
        <mxCell id="5OGZ8TOEZ4ISo7_Y0Ipv-14" value="Log" style="shape=parallelogram;html=1;strokeWidth=2;perimeter=parallelogramPerimeter;whiteSpace=wrap;rounded=1;arcSize=12;size=0.23;sketch=1;hachureGap=4;jiggle=2;curveFitting=1;fontFamily=Architects Daughter;fontSource=https%3A%2F%2Ffonts.googleapis.com%2Fcss%3Ffamily%3DArchitects%2BDaughter;fontSize=11;fontColor=default;labelBackgroundColor=default;" parent="7GpZUAwKVwqj07Rl_q-q-2" vertex="1">
          <mxGeometry x="10" y="10" width="70" height="20" as="geometry" />
        </mxCell>
        <mxCell id="5OGZ8TOEZ4ISo7_Y0Ipv-15" value="Log" style="shape=parallelogram;html=1;strokeWidth=2;perimeter=parallelogramPerimeter;whiteSpace=wrap;rounded=1;arcSize=12;size=0.23;sketch=1;hachureGap=4;jiggle=2;curveFitting=1;fontFamily=Architects Daughter;fontSource=https%3A%2F%2Ffonts.googleapis.com%2Fcss%3Ffamily%3DArchitects%2BDaughter;fontSize=11;fontColor=default;labelBackgroundColor=default;" parent="7GpZUAwKVwqj07Rl_q-q-2" vertex="1">
          <mxGeometry x="20" y="20" width="70" height="20" as="geometry" />
        </mxCell>
        <mxCell id="viBzZ-B53qdXmxcCXCbC-4" style="edgeStyle=orthogonalEdgeStyle;rounded=0;sketch=1;hachureGap=4;jiggle=2;curveFitting=1;orthogonalLoop=1;jettySize=auto;html=1;exitX=0.5;exitY=1;exitDx=0;exitDy=0;entryX=0.5;entryY=0;entryDx=0;entryDy=0;fontFamily=Architects Daughter;fontSource=https%3A%2F%2Ffonts.googleapis.com%2Fcss%3Ffamily%3DArchitects%2BDaughter;" parent="1" source="viBzZ-B53qdXmxcCXCbC-1" target="5OGZ8TOEZ4ISo7_Y0Ipv-2" edge="1">
          <mxGeometry relative="1" as="geometry" />
        </mxCell>
        <mxCell id="viBzZ-B53qdXmxcCXCbC-1" value="LogFactory" style="ellipse;whiteSpace=wrap;html=1;aspect=fixed;sketch=1;hachureGap=4;jiggle=2;curveFitting=1;fontFamily=Architects Daughter;fontSource=https%3A%2F%2Ffonts.googleapis.com%2Fcss%3Ffamily%3DArchitects%2BDaughter;" parent="1" vertex="1">
          <mxGeometry x="320" y="270" width="80" height="80" as="geometry" />
        </mxCell>
        <mxCell id="5OGZ8TOEZ4ISo7_Y0Ipv-10" value="Log" style="shape=parallelogram;html=1;strokeWidth=2;perimeter=parallelogramPerimeter;whiteSpace=wrap;rounded=1;arcSize=12;size=0.23;sketch=1;hachureGap=4;jiggle=2;curveFitting=1;fontFamily=Architects Daughter;fontSource=https%3A%2F%2Ffonts.googleapis.com%2Fcss%3Ffamily%3DArchitects%2BDaughter;fontSize=11;fontColor=default;labelBackgroundColor=default;" parent="1" vertex="1">
          <mxGeometry x="325" y="364" width="70" height="20" as="geometry" />
        </mxCell>
        <mxCell id="viBzZ-B53qdXmxcCXCbC-8" value="RawData" style="shape=parallelogram;html=1;strokeWidth=2;perimeter=parallelogramPerimeter;whiteSpace=wrap;rounded=1;arcSize=12;size=0.23;sketch=1;hachureGap=4;jiggle=2;curveFitting=1;fontFamily=Architects Daughter;fontSource=https%3A%2F%2Ffonts.googleapis.com%2Fcss%3Ffamily%3DArchitects%2BDaughter;fontSize=11;fontColor=default;labelBackgroundColor=default;" parent="1" vertex="1">
          <mxGeometry x="325" y="230" width="70" height="20" as="geometry" />
        </mxCell>
        <mxCell id="viBzZ-B53qdXmxcCXCbC-10" style="edgeStyle=orthogonalEdgeStyle;rounded=0;sketch=1;hachureGap=4;jiggle=2;curveFitting=1;orthogonalLoop=1;jettySize=auto;html=1;fontFamily=Architects Daughter;fontSource=https%3A%2F%2Ffonts.googleapis.com%2Fcss%3Ffamily%3DArchitects%2BDaughter;" parent="1" source="viBzZ-B53qdXmxcCXCbC-9" target="5OGZ8TOEZ4ISo7_Y0Ipv-1" edge="1">
          <mxGeometry relative="1" as="geometry" />
        </mxCell>
        <mxCell id="viBzZ-B53qdXmxcCXCbC-9" value="Source" style="strokeWidth=2;html=1;shape=mxgraph.flowchart.database;whiteSpace=wrap;sketch=1;hachureGap=4;jiggle=2;curveFitting=1;fontFamily=Architects Daughter;fontSource=https%3A%2F%2Ffonts.googleapis.com%2Fcss%3Ffamily%3DArchitects%2BDaughter;" parent="1" vertex="1">
          <mxGeometry x="190" y="150" width="60" height="60" as="geometry" />
        </mxCell>
        <mxCell id="viBzZ-B53qdXmxcCXCbC-11" value="" style="endArrow=none;dashed=1;html=1;dashPattern=1 3;strokeWidth=2;rounded=0;sketch=1;hachureGap=4;jiggle=2;curveFitting=1;fontFamily=Architects Daughter;fontSource=https%3A%2F%2Ffonts.googleapis.com%2Fcss%3Ffamily%3DArchitects%2BDaughter;" parent="1" edge="1">
          <mxGeometry width="50" height="50" relative="1" as="geometry">
            <mxPoint x="170" y="110" as="sourcePoint" />
            <mxPoint x="580" y="110" as="targetPoint" />
          </mxGeometry>
        </mxCell>
        <mxCell id="viBzZ-B53qdXmxcCXCbC-12" value="" style="endArrow=none;dashed=1;html=1;dashPattern=1 3;strokeWidth=2;rounded=0;sketch=1;hachureGap=4;jiggle=2;curveFitting=1;fontFamily=Architects Daughter;fontSource=https%3A%2F%2Ffonts.googleapis.com%2Fcss%3Ffamily%3DArchitects%2BDaughter;" parent="1" edge="1">
          <mxGeometry width="50" height="50" relative="1" as="geometry">
            <mxPoint x="160" y="620" as="sourcePoint" />
            <mxPoint x="580" y="620" as="targetPoint" />
          </mxGeometry>
        </mxCell>
        <mxCell id="viBzZ-B53qdXmxcCXCbC-13" value="" style="endArrow=none;dashed=1;html=1;dashPattern=1 3;strokeWidth=2;rounded=0;sketch=1;hachureGap=4;jiggle=2;curveFitting=1;fontFamily=Architects Daughter;fontSource=https%3A%2F%2Ffonts.googleapis.com%2Fcss%3Ffamily%3DArchitects%2BDaughter;" parent="1" edge="1">
          <mxGeometry width="50" height="50" relative="1" as="geometry">
            <mxPoint x="165" y="350" as="sourcePoint" />
            <mxPoint x="585" y="350" as="targetPoint" />
          </mxGeometry>
        </mxCell>
        <mxCell id="viBzZ-B53qdXmxcCXCbC-14" value="&lt;h1 style=&quot;margin-top: 0px;&quot;&gt;Extract&lt;/h1&gt;" style="text;html=1;whiteSpace=wrap;overflow=hidden;rounded=0;fontFamily=Architects Daughter;fontSource=https%3A%2F%2Ffonts.googleapis.com%2Fcss%3Ffamily%3DArchitects%2BDaughter;" parent="1" vertex="1">
          <mxGeometry x="160" y="110" width="100" height="40" as="geometry" />
        </mxCell>
        <mxCell id="viBzZ-B53qdXmxcCXCbC-15" value="&lt;h1 style=&quot;margin-top: 0px;&quot;&gt;Transform&lt;/h1&gt;" style="text;html=1;whiteSpace=wrap;overflow=hidden;rounded=0;fontFamily=Architects Daughter;fontSource=https%3A%2F%2Ffonts.googleapis.com%2Fcss%3Ffamily%3DArchitects%2BDaughter;" parent="1" vertex="1">
          <mxGeometry x="165" y="350" width="135" height="40" as="geometry" />
        </mxCell>
        <mxCell id="viBzZ-B53qdXmxcCXCbC-16" value="&lt;h1 style=&quot;margin-top: 0px;&quot;&gt;Load&lt;/h1&gt;" style="text;html=1;whiteSpace=wrap;overflow=hidden;rounded=0;fontFamily=Architects Daughter;fontSource=https%3A%2F%2Ffonts.googleapis.com%2Fcss%3Ffamily%3DArchitects%2BDaughter;" parent="1" vertex="1">
          <mxGeometry x="160" y="620" width="62.5" height="40" as="geometry" />
        </mxCell>
        <mxCell id="tBzboU6sfdLbkcxL1sSQ-3" style="rounded=0;sketch=1;hachureGap=4;jiggle=2;curveFitting=1;orthogonalLoop=1;jettySize=auto;html=1;exitX=1;exitY=0.5;exitDx=0;exitDy=0;fontFamily=Architects Daughter;fontSource=https%3A%2F%2Ffonts.googleapis.com%2Fcss%3Ffamily%3DArchitects%2BDaughter;entryX=0;entryY=0.5;entryDx=0;entryDy=0;" parent="1" source="7GpZUAwKVwqj07Rl_q-q-4" target="5OGZ8TOEZ4ISo7_Y0Ipv-4" edge="1">
          <mxGeometry relative="1" as="geometry" />
        </mxCell>
        <mxCell id="7GpZUAwKVwqj07Rl_q-q-4" value="Batcher" style="rounded=1;whiteSpace=wrap;html=1;sketch=1;hachureGap=4;jiggle=2;curveFitting=1;fontFamily=Architects Daughter;fontSource=https%3A%2F%2Ffonts.googleapis.com%2Fcss%3Ffamily%3DArchitects%2BDaughter;fontSize=11;fontColor=default;labelBackgroundColor=default;" parent="1" vertex="1">
          <mxGeometry x="165" y="680" width="120" height="60" as="geometry" />
        </mxCell>
        <mxCell id="7GpZUAwKVwqj07Rl_q-q-8" value="" style="group" parent="1" vertex="1" connectable="0">
          <mxGeometry x="188" y="744" width="90" height="40" as="geometry" />
        </mxCell>
        <mxCell id="7GpZUAwKVwqj07Rl_q-q-9" value="Log" style="shape=parallelogram;html=1;strokeWidth=2;perimeter=parallelogramPerimeter;whiteSpace=wrap;rounded=1;arcSize=12;size=0.23;sketch=1;hachureGap=4;jiggle=2;curveFitting=1;fontFamily=Architects Daughter;fontSource=https%3A%2F%2Ffonts.googleapis.com%2Fcss%3Ffamily%3DArchitects%2BDaughter;fontSize=11;fontColor=default;labelBackgroundColor=default;" parent="7GpZUAwKVwqj07Rl_q-q-8" vertex="1">
          <mxGeometry width="70" height="20" as="geometry" />
        </mxCell>
        <mxCell id="7GpZUAwKVwqj07Rl_q-q-10" value="Log" style="shape=parallelogram;html=1;strokeWidth=2;perimeter=parallelogramPerimeter;whiteSpace=wrap;rounded=1;arcSize=12;size=0.23;sketch=1;hachureGap=4;jiggle=2;curveFitting=1;fontFamily=Architects Daughter;fontSource=https%3A%2F%2Ffonts.googleapis.com%2Fcss%3Ffamily%3DArchitects%2BDaughter;fontSize=11;fontColor=default;labelBackgroundColor=default;" parent="7GpZUAwKVwqj07Rl_q-q-8" vertex="1">
          <mxGeometry x="10" y="10" width="70" height="20" as="geometry" />
        </mxCell>
        <mxCell id="7GpZUAwKVwqj07Rl_q-q-11" value="Log" style="shape=parallelogram;html=1;strokeWidth=2;perimeter=parallelogramPerimeter;whiteSpace=wrap;rounded=1;arcSize=12;size=0.23;sketch=1;hachureGap=4;jiggle=2;curveFitting=1;fontFamily=Architects Daughter;fontSource=https%3A%2F%2Ffonts.googleapis.com%2Fcss%3Ffamily%3DArchitects%2BDaughter;fontSize=11;fontColor=default;labelBackgroundColor=default;" parent="7GpZUAwKVwqj07Rl_q-q-8" vertex="1">
          <mxGeometry x="20" y="20" width="70" height="20" as="geometry" />
        </mxCell>
        <mxCell id="tBzboU6sfdLbkcxL1sSQ-1" value="&lt;font style=&quot;font-size: 19px;&quot;&gt;Pipeline&lt;/font&gt;" style="text;html=1;align=center;verticalAlign=middle;whiteSpace=wrap;rounded=0;fontFamily=Architects Daughter;fontSource=https%3A%2F%2Ffonts.googleapis.com%2Fcss%3Ffamily%3DArchitects%2BDaughter;fontStyle=1" parent="1" vertex="1">
          <mxGeometry x="520" y="115" width="60" height="30" as="geometry" />
        </mxCell>
        <mxCell id="tBzboU6sfdLbkcxL1sSQ-8" value="" style="group" parent="1" vertex="1" connectable="0">
          <mxGeometry x="283" y="690" width="90" height="40" as="geometry" />
        </mxCell>
        <mxCell id="tBzboU6sfdLbkcxL1sSQ-9" value="Log" style="shape=parallelogram;html=1;strokeWidth=2;perimeter=parallelogramPerimeter;whiteSpace=wrap;rounded=1;arcSize=12;size=0.23;sketch=1;hachureGap=4;jiggle=2;curveFitting=1;fontFamily=Architects Daughter;fontSource=https%3A%2F%2Ffonts.googleapis.com%2Fcss%3Ffamily%3DArchitects%2BDaughter;fontSize=11;fontColor=default;labelBackgroundColor=default;" parent="tBzboU6sfdLbkcxL1sSQ-8" vertex="1">
          <mxGeometry width="70" height="20" as="geometry" />
        </mxCell>
        <mxCell id="tBzboU6sfdLbkcxL1sSQ-10" value="Log" style="shape=parallelogram;html=1;strokeWidth=2;perimeter=parallelogramPerimeter;whiteSpace=wrap;rounded=1;arcSize=12;size=0.23;sketch=1;hachureGap=4;jiggle=2;curveFitting=1;fontFamily=Architects Daughter;fontSource=https%3A%2F%2Ffonts.googleapis.com%2Fcss%3Ffamily%3DArchitects%2BDaughter;fontSize=11;fontColor=default;labelBackgroundColor=default;" parent="tBzboU6sfdLbkcxL1sSQ-8" vertex="1">
          <mxGeometry x="10" y="10" width="70" height="20" as="geometry" />
        </mxCell>
        <mxCell id="tBzboU6sfdLbkcxL1sSQ-11" value="Log" style="shape=parallelogram;html=1;strokeWidth=2;perimeter=parallelogramPerimeter;whiteSpace=wrap;rounded=1;arcSize=12;size=0.23;sketch=1;hachureGap=4;jiggle=2;curveFitting=1;fontFamily=Architects Daughter;fontSource=https%3A%2F%2Ffonts.googleapis.com%2Fcss%3Ffamily%3DArchitects%2BDaughter;fontSize=11;fontColor=default;labelBackgroundColor=default;" parent="tBzboU6sfdLbkcxL1sSQ-8" vertex="1">
          <mxGeometry x="20" y="20" width="70" height="20" as="geometry" />
        </mxCell>
      </root>
    </mxGraphModel>
  </diagram>
  <diagram id="Ht1M8jgEwFfnCIfOTk4-" name="Kafka Streams S3 Connect Architecture">
    <mxGraphModel dx="954" dy="747" grid="1" gridSize="10" guides="1" tooltips="1" connect="1" arrows="1" fold="1" page="1" pageScale="1" pageWidth="1169" pageHeight="827" math="0" shadow="0">
      <root>
        <mxCell id="0" />
        <mxCell id="1" parent="0" />
        <mxCell id="YGn0x9iuYQa__RkSt71Y-25" value="④ GetObject" style="edgeStyle=orthogonalEdgeStyle;rounded=0;orthogonalLoop=1;jettySize=auto;html=1;exitX=1;exitY=0.5;exitDx=0;exitDy=0;exitPerimeter=0;entryX=0;entryY=0.25;entryDx=0;entryDy=0;strokeColor=default;strokeWidth=2;align=center;verticalAlign=middle;fontFamily=AppleSDGothicNeoM00;fontSize=12;fontColor=#232F3E;fontStyle=0;labelBackgroundColor=default;endArrow=classic;" parent="1" source="YGn0x9iuYQa__RkSt71Y-2" target="YGn0x9iuYQa__RkSt71Y-16" edge="1">
          <mxGeometry relative="1" as="geometry" />
        </mxCell>
        <mxCell id="YGn0x9iuYQa__RkSt71Y-2" value="&lt;font face=&quot;AppleSDGothicNeoEB00&quot;&gt;S3&lt;/font&gt;" style="points=[[0,0,0],[0.25,0,0],[0.5,0,0],[0.75,0,0],[1,0,0],[0,1,0],[0.25,1,0],[0.5,1,0],[0.75,1,0],[1,1,0],[0,0.25,0],[0,0.5,0],[0,0.75,0],[1,0.25,0],[1,0.5,0],[1,0.75,0]];outlineConnect=0;fontColor=#232F3E;fillColor=#7AA116;strokeColor=#ffffff;dashed=0;verticalLabelPosition=bottom;verticalAlign=top;align=center;html=1;fontSize=12;fontStyle=0;aspect=fixed;shape=mxgraph.aws4.resourceIcon;resIcon=mxgraph.aws4.s3;" parent="1" vertex="1">
          <mxGeometry x="340" y="200" width="80" height="80" as="geometry" />
        </mxCell>
        <mxCell id="YGn0x9iuYQa__RkSt71Y-22" value="② Produce" style="edgeStyle=orthogonalEdgeStyle;rounded=0;orthogonalLoop=1;jettySize=auto;html=1;exitX=1;exitY=0.75;exitDx=0;exitDy=0;entryX=0;entryY=0.5;entryDx=0;entryDy=0;strokeColor=default;strokeWidth=2;align=center;verticalAlign=middle;fontFamily=AppleSDGothicNeoM00;fontSize=12;fontColor=#232F3E;fontStyle=0;labelBackgroundColor=default;endArrow=classic;" parent="1" source="YGn0x9iuYQa__RkSt71Y-7" target="YGn0x9iuYQa__RkSt71Y-21" edge="1">
          <mxGeometry relative="1" as="geometry" />
        </mxCell>
        <mxCell id="YGn0x9iuYQa__RkSt71Y-7" value="&lt;font face=&quot;AppleSDGothicNeoEB00&quot;&gt;Client&lt;/font&gt;" style="text;html=1;align=center;verticalAlign=middle;whiteSpace=wrap;rounded=0;fontFamily=Helvetica;fontSize=12;fontStyle=0;fillColor=#f5f5f5;strokeColor=none;fontColor=#333333;" parent="1" vertex="1">
          <mxGeometry x="110" y="260" width="120" height="80" as="geometry" />
        </mxCell>
        <mxCell id="YGn0x9iuYQa__RkSt71Y-11" value="① PutObject" style="edgeStyle=orthogonalEdgeStyle;rounded=0;orthogonalLoop=1;jettySize=auto;html=1;exitX=1;exitY=0.25;exitDx=0;exitDy=0;entryX=0;entryY=0.5;entryDx=0;entryDy=0;entryPerimeter=0;fontFamily=AppleSDGothicNeoM00;fontSize=12;fontColor=#232F3E;fontStyle=0;strokeWidth=2;" parent="1" source="YGn0x9iuYQa__RkSt71Y-7" target="YGn0x9iuYQa__RkSt71Y-2" edge="1">
          <mxGeometry relative="1" as="geometry" />
        </mxCell>
        <mxCell id="YGn0x9iuYQa__RkSt71Y-14" value="&lt;font face=&quot;AppleSDGothicNeoEB00&quot;&gt;Sink&lt;/font&gt;&lt;div&gt;&lt;font face=&quot;AppleSDGothicNeoEB00&quot;&gt;Topic&lt;/font&gt;&lt;/div&gt;" style="text;html=1;align=center;verticalAlign=middle;whiteSpace=wrap;rounded=0;fontFamily=Helvetica;fontSize=12;fontStyle=0;fillColor=#d5e8d4;strokeColor=none;" parent="1" vertex="1">
          <mxGeometry x="760" y="260" width="120" height="80" as="geometry" />
        </mxCell>
        <mxCell id="YGn0x9iuYQa__RkSt71Y-18" value="⑤&amp;nbsp;Produce" style="edgeStyle=orthogonalEdgeStyle;rounded=0;orthogonalLoop=1;jettySize=auto;html=1;entryX=0;entryY=0.5;entryDx=0;entryDy=0;strokeColor=default;strokeWidth=2;align=center;verticalAlign=middle;fontFamily=AppleSDGothicNeoM00;fontSize=12;fontColor=#232F3E;fontStyle=0;labelBackgroundColor=default;endArrow=classic;" parent="1" source="YGn0x9iuYQa__RkSt71Y-16" target="YGn0x9iuYQa__RkSt71Y-14" edge="1">
          <mxGeometry relative="1" as="geometry">
            <mxPoint as="offset" />
          </mxGeometry>
        </mxCell>
        <mxCell id="YGn0x9iuYQa__RkSt71Y-16" value="&lt;div&gt;&lt;font face=&quot;AppleSDGothicNeoEB00&quot;&gt;Application&lt;/font&gt;&lt;/div&gt;" style="text;html=1;align=center;verticalAlign=middle;whiteSpace=wrap;rounded=0;fontFamily=Helvetica;fontSize=12;fontStyle=0;fillColor=#dae8fc;strokeColor=none;" parent="1" vertex="1">
          <mxGeometry x="520" y="260" width="120" height="80" as="geometry" />
        </mxCell>
        <mxCell id="YGn0x9iuYQa__RkSt71Y-27" value="③ Consume" style="edgeStyle=orthogonalEdgeStyle;rounded=0;orthogonalLoop=1;jettySize=auto;html=1;entryX=0;entryY=0.75;entryDx=0;entryDy=0;strokeColor=default;strokeWidth=2;align=center;verticalAlign=middle;fontFamily=AppleSDGothicNeoM00;fontSize=12;fontColor=#232F3E;fontStyle=0;labelBackgroundColor=default;endArrow=classic;" parent="1" source="YGn0x9iuYQa__RkSt71Y-21" target="YGn0x9iuYQa__RkSt71Y-16" edge="1">
          <mxGeometry relative="1" as="geometry" />
        </mxCell>
        <mxCell id="YGn0x9iuYQa__RkSt71Y-21" value="&lt;font face=&quot;AppleSDGothicNeoEB00&quot;&gt;S3&lt;/font&gt;&lt;div&gt;&lt;font face=&quot;AppleSDGothicNeoEB00&quot;&gt;Source&lt;/font&gt;&lt;div&gt;&lt;font face=&quot;AppleSDGothicNeoEB00&quot;&gt;Topic&lt;/font&gt;&lt;/div&gt;&lt;/div&gt;" style="text;html=1;align=center;verticalAlign=middle;whiteSpace=wrap;rounded=0;fontFamily=Helvetica;fontSize=12;fontStyle=0;fillColor=#fff2cc;strokeColor=none;" parent="1" vertex="1">
          <mxGeometry x="320" y="320" width="120" height="80" as="geometry" />
        </mxCell>
      </root>
    </mxGraphModel>
  </diagram>
  <diagram name="Architecture" id="O2AHGS3JYFzkVv_6ZqCY">
    <mxGraphModel dx="954" dy="747" grid="1" gridSize="10" guides="1" tooltips="1" connect="1" arrows="1" fold="1" page="1" pageScale="1" pageWidth="827" pageHeight="1169" math="0" shadow="0">
      <root>
        <mxCell id="RH6QTE9_bUNVyBX1JtAK-0" />
        <mxCell id="RH6QTE9_bUNVyBX1JtAK-1" parent="RH6QTE9_bUNVyBX1JtAK-0" />
        <mxCell id="RH6QTE9_bUNVyBX1JtAK-2" value="②&amp;nbsp;getObject" style="edgeStyle=orthogonalEdgeStyle;rounded=0;sketch=1;hachureGap=4;jiggle=2;curveFitting=1;orthogonalLoop=1;jettySize=auto;html=1;entryX=0;entryY=0.5;entryDx=0;entryDy=0;fontFamily=Architects Daughter;fontSource=https%3A%2F%2Ffonts.googleapis.com%2Fcss%3Ffamily%3DArchitects%2BDaughter;fontSize=12;" parent="RH6QTE9_bUNVyBX1JtAK-1" source="RH6QTE9_bUNVyBX1JtAK-3" target="RH6QTE9_bUNVyBX1JtAK-8" edge="1">
          <mxGeometry x="0.007" relative="1" as="geometry">
            <mxPoint as="offset" />
          </mxGeometry>
        </mxCell>
        <mxCell id="RH6QTE9_bUNVyBX1JtAK-3" value="AWS S3" style="sketch=0;points=[[0,0,0],[0.25,0,0],[0.5,0,0],[0.75,0,0],[1,0,0],[0,1,0],[0.25,1,0],[0.5,1,0],[0.75,1,0],[1,1,0],[0,0.25,0],[0,0.5,0],[0,0.75,0],[1,0.25,0],[1,0.5,0],[1,0.75,0]];outlineConnect=0;fontColor=#232F3E;fillColor=#7AA116;strokeColor=#ffffff;dashed=0;verticalLabelPosition=bottom;verticalAlign=top;align=center;html=1;fontSize=12;fontStyle=0;aspect=fixed;shape=mxgraph.aws4.resourceIcon;resIcon=mxgraph.aws4.s3;hachureGap=4;jiggle=2;curveFitting=1;fontFamily=Architects Daughter;fontSource=https%3A%2F%2Ffonts.googleapis.com%2Fcss%3Ffamily%3DArchitects%2BDaughter;" parent="RH6QTE9_bUNVyBX1JtAK-1" vertex="1">
          <mxGeometry x="110" y="270" width="78" height="78" as="geometry" />
        </mxCell>
        <mxCell id="RH6QTE9_bUNVyBX1JtAK-4" value="yyyy/mm/dd" style="image;aspect=fixed;html=1;points=[];align=center;fontSize=12;image=img/lib/azure2/general/Folder_Blank.svg;sketch=1;hachureGap=4;jiggle=2;curveFitting=1;fontFamily=Architects Daughter;fontSource=https%3A%2F%2Ffonts.googleapis.com%2Fcss%3Ffamily%3DArchitects%2BDaughter;" parent="RH6QTE9_bUNVyBX1JtAK-1" vertex="1">
          <mxGeometry x="80" y="370" width="69" height="56.00000000000001" as="geometry" />
        </mxCell>
        <mxCell id="RH6QTE9_bUNVyBX1JtAK-5" value="1324.ndjson" style="sketch=0;outlineConnect=0;fontColor=#232F3E;gradientColor=none;fillColor=#232F3D;strokeColor=none;dashed=0;verticalLabelPosition=bottom;verticalAlign=top;align=center;html=1;fontSize=12;fontStyle=0;aspect=fixed;pointerEvents=1;shape=mxgraph.aws4.json_script;hachureGap=4;jiggle=2;curveFitting=1;fontFamily=Architects Daughter;fontSource=https%3A%2F%2Ffonts.googleapis.com%2Fcss%3Ffamily%3DArchitects%2BDaughter;" parent="RH6QTE9_bUNVyBX1JtAK-1" vertex="1">
          <mxGeometry x="170" y="380" width="50.46" height="69.04" as="geometry" />
        </mxCell>
        <mxCell id="RH6QTE9_bUNVyBX1JtAK-6" value="1326.ndjson" style="sketch=0;outlineConnect=0;fontColor=#232F3E;gradientColor=none;fillColor=#232F3D;strokeColor=none;dashed=0;verticalLabelPosition=bottom;verticalAlign=top;align=center;html=1;fontSize=12;fontStyle=0;aspect=fixed;pointerEvents=1;shape=mxgraph.aws4.json_script;hachureGap=4;jiggle=2;curveFitting=1;fontFamily=Architects Daughter;fontSource=https%3A%2F%2Ffonts.googleapis.com%2Fcss%3Ffamily%3DArchitects%2BDaughter;" parent="RH6QTE9_bUNVyBX1JtAK-1" vertex="1">
          <mxGeometry x="170" y="470" width="50.46" height="69.04" as="geometry" />
        </mxCell>
        <mxCell id="RH6QTE9_bUNVyBX1JtAK-7" value="①&amp;nbsp;SCAN" style="edgeStyle=orthogonalEdgeStyle;rounded=0;sketch=1;hachureGap=4;jiggle=2;curveFitting=1;orthogonalLoop=1;jettySize=auto;html=1;entryX=0.5;entryY=0;entryDx=0;entryDy=0;fontFamily=Architects Daughter;fontSource=https%3A%2F%2Ffonts.googleapis.com%2Fcss%3Ffamily%3DArchitects%2BDaughter;exitX=0;exitY=0.5;exitDx=0;exitDy=0;exitPerimeter=0;fontSize=12;" parent="RH6QTE9_bUNVyBX1JtAK-1" source="RH6QTE9_bUNVyBX1JtAK-14" target="RH6QTE9_bUNVyBX1JtAK-8" edge="1">
          <mxGeometry relative="1" as="geometry">
            <mxPoint x="530" y="230" as="sourcePoint" />
          </mxGeometry>
        </mxCell>
        <mxCell id="RH6QTE9_bUNVyBX1JtAK-8" value="S3 Source Connector" style="rounded=1;whiteSpace=wrap;html=1;sketch=1;hachureGap=4;jiggle=2;curveFitting=1;fontFamily=Architects Daughter;fontSource=https%3A%2F%2Ffonts.googleapis.com%2Fcss%3Ffamily%3DArchitects%2BDaughter;" parent="RH6QTE9_bUNVyBX1JtAK-1" vertex="1">
          <mxGeometry x="320" y="290" width="120" height="60" as="geometry" />
        </mxCell>
        <mxCell id="RH6QTE9_bUNVyBX1JtAK-9" style="edgeStyle=orthogonalEdgeStyle;rounded=0;sketch=1;hachureGap=4;jiggle=2;curveFitting=1;orthogonalLoop=1;jettySize=auto;html=1;exitX=1;exitY=0.75;exitDx=0;exitDy=0;fontFamily=Architects Daughter;fontSource=https%3A%2F%2Ffonts.googleapis.com%2Fcss%3Ffamily%3DArchitects%2BDaughter;entryX=0.5;entryY=0;entryDx=0;entryDy=0;entryPerimeter=0;" parent="RH6QTE9_bUNVyBX1JtAK-1" source="RH6QTE9_bUNVyBX1JtAK-8" target="RH6QTE9_bUNVyBX1JtAK-17" edge="1">
          <mxGeometry relative="1" as="geometry">
            <mxPoint x="595" y="389.03999999999996" as="targetPoint" />
          </mxGeometry>
        </mxCell>
        <mxCell id="RH6QTE9_bUNVyBX1JtAK-10" value="④ produce logs" style="edgeLabel;html=1;align=center;verticalAlign=middle;resizable=0;points=[];sketch=1;hachureGap=4;jiggle=2;curveFitting=1;fontFamily=Architects Daughter;fontSource=https%3A%2F%2Ffonts.googleapis.com%2Fcss%3Ffamily%3DArchitects%2BDaughter;fontSize=12;" parent="RH6QTE9_bUNVyBX1JtAK-9" vertex="1" connectable="0">
          <mxGeometry x="-0.4476" y="2" relative="1" as="geometry">
            <mxPoint as="offset" />
          </mxGeometry>
        </mxCell>
        <mxCell id="RH6QTE9_bUNVyBX1JtAK-11" style="edgeStyle=orthogonalEdgeStyle;rounded=0;sketch=1;hachureGap=4;jiggle=2;curveFitting=1;orthogonalLoop=1;jettySize=auto;html=1;exitX=1;exitY=0.25;exitDx=0;exitDy=0;fontFamily=Architects Daughter;fontSource=https%3A%2F%2Ffonts.googleapis.com%2Fcss%3Ffamily%3DArchitects%2BDaughter;" parent="RH6QTE9_bUNVyBX1JtAK-1" source="RH6QTE9_bUNVyBX1JtAK-8" target="RH6QTE9_bUNVyBX1JtAK-14" edge="1">
          <mxGeometry relative="1" as="geometry">
            <mxPoint x="595" y="260" as="targetPoint" />
          </mxGeometry>
        </mxCell>
        <mxCell id="RH6QTE9_bUNVyBX1JtAK-12" value="⑤&amp;nbsp;produce offsets" style="edgeLabel;html=1;align=center;verticalAlign=middle;resizable=0;points=[];sketch=1;hachureGap=4;jiggle=2;curveFitting=1;fontFamily=Architects Daughter;fontSource=https%3A%2F%2Ffonts.googleapis.com%2Fcss%3Ffamily%3DArchitects%2BDaughter;fontSize=12;" parent="RH6QTE9_bUNVyBX1JtAK-11" vertex="1" connectable="0">
          <mxGeometry x="-0.5905" y="-5" relative="1" as="geometry">
            <mxPoint x="27" y="-1" as="offset" />
          </mxGeometry>
        </mxCell>
        <mxCell id="RH6QTE9_bUNVyBX1JtAK-13" value="" style="group" parent="RH6QTE9_bUNVyBX1JtAK-1" vertex="1" connectable="0">
          <mxGeometry x="540" y="190" width="110" height="90" as="geometry" />
        </mxCell>
        <mxCell id="RH6QTE9_bUNVyBX1JtAK-14" value="" style="strokeWidth=2;html=1;shape=mxgraph.flowchart.database;whiteSpace=wrap;sketch=1;hachureGap=4;jiggle=2;curveFitting=1;fontFamily=Architects Daughter;fontSource=https%3A%2F%2Ffonts.googleapis.com%2Fcss%3Ffamily%3DArchitects%2BDaughter;" parent="RH6QTE9_bUNVyBX1JtAK-13" vertex="1">
          <mxGeometry x="10" width="90" height="60" as="geometry" />
        </mxCell>
        <mxCell id="RH6QTE9_bUNVyBX1JtAK-15" value="s3-offset-topic" style="text;html=1;align=center;verticalAlign=middle;resizable=0;points=[];autosize=1;strokeColor=none;fillColor=none;fontFamily=Architects Daughter;fontSource=https%3A%2F%2Ffonts.googleapis.com%2Fcss%3Ffamily%3DArchitects%2BDaughter;" parent="RH6QTE9_bUNVyBX1JtAK-13" vertex="1">
          <mxGeometry y="60" width="110" height="30" as="geometry" />
        </mxCell>
        <mxCell id="RH6QTE9_bUNVyBX1JtAK-16" value="" style="group" parent="RH6QTE9_bUNVyBX1JtAK-1" vertex="1" connectable="0">
          <mxGeometry x="540" y="390" width="110" height="90" as="geometry" />
        </mxCell>
        <mxCell id="RH6QTE9_bUNVyBX1JtAK-17" value="" style="strokeWidth=2;html=1;shape=mxgraph.flowchart.database;whiteSpace=wrap;sketch=1;hachureGap=4;jiggle=2;curveFitting=1;fontFamily=Architects Daughter;fontSource=https%3A%2F%2Ffonts.googleapis.com%2Fcss%3Ffamily%3DArchitects%2BDaughter;" parent="RH6QTE9_bUNVyBX1JtAK-16" vertex="1">
          <mxGeometry x="10" width="90" height="60" as="geometry" />
        </mxCell>
        <mxCell id="RH6QTE9_bUNVyBX1JtAK-18" value="log-topic" style="text;html=1;align=center;verticalAlign=middle;resizable=0;points=[];autosize=1;strokeColor=none;fillColor=none;fontFamily=Architects Daughter;fontSource=https%3A%2F%2Ffonts.googleapis.com%2Fcss%3Ffamily%3DArchitects%2BDaughter;" parent="RH6QTE9_bUNVyBX1JtAK-16" vertex="1">
          <mxGeometry x="20" y="60" width="70" height="30" as="geometry" />
        </mxCell>
        <mxCell id="RH6QTE9_bUNVyBX1JtAK-19" value="&lt;span style=&quot;color: rgb(0, 0, 0); font-family: &amp;quot;Architects Daughter&amp;quot;; font-size: 12px; font-style: normal; font-variant-ligatures: normal; font-variant-caps: normal; font-weight: 400; letter-spacing: normal; orphans: 2; text-align: center; text-indent: 0px; text-transform: none; widows: 2; word-spacing: 0px; -webkit-text-stroke-width: 0px; white-space: nowrap; background-color: rgb(255, 255, 255); text-decoration-thickness: initial; text-decoration-style: initial; text-decoration-color: initial; float: none; display: inline !important;&quot;&gt;③ read logs&lt;/span&gt;" style="text;whiteSpace=wrap;html=1;fontFamily=Architects Daughter;fontSource=https%3A%2F%2Ffonts.googleapis.com%2Fcss%3Ffamily%3DArchitects%2BDaughter;" parent="RH6QTE9_bUNVyBX1JtAK-1" vertex="1">
          <mxGeometry x="340" y="370" width="80" height="30" as="geometry" />
        </mxCell>
        <mxCell id="RH6QTE9_bUNVyBX1JtAK-20" style="edgeStyle=orthogonalEdgeStyle;rounded=0;sketch=1;hachureGap=4;jiggle=2;curveFitting=1;orthogonalLoop=1;jettySize=auto;html=1;exitX=0.25;exitY=1;exitDx=0;exitDy=0;entryX=0.75;entryY=1;entryDx=0;entryDy=0;fontFamily=Architects Daughter;fontSource=https%3A%2F%2Ffonts.googleapis.com%2Fcss%3Ffamily%3DArchitects%2BDaughter;" parent="RH6QTE9_bUNVyBX1JtAK-1" source="RH6QTE9_bUNVyBX1JtAK-8" target="RH6QTE9_bUNVyBX1JtAK-8" edge="1">
          <mxGeometry relative="1" as="geometry" />
        </mxCell>
      </root>
    </mxGraphModel>
  </diagram>
</mxfile>
